# xmcd
#
# Track frame offsets: 
#        150
#        19625
#        40864
#        55041
#        76310
#        92916
#        113628
#        133794
#        149137
#        163598
#        182752
#        201445
#        228603
#        246452
#        269734
#        291130
#        313868
#        329873
#
# Disc length: 4650 seconds
#
# Revision: 1
# Processed by: cddbd v1.5.2PL0 Copyright (c) Steve Scherf et al.
# Submitted via: ExactAudioCopy v1.3
#
DISCID=1c122812
DTITLE=Various Artist - Light Mellow Magic
DYEAR=2014
DGENRE=AOR
TTITLE0=星野みちる - ワンダランド
TTITLE1=中澤信栄 - 心配ないよ
TTITLE2=大上 留利子 - ぶるう・はぁと (小唄)
TTITLE3=黒住憲五 - シンプルな一日
TTITLE4=石川優子 - めざめれば
TTITLE5=東北新幹線 - Up and Down
TTITLE6=下成佐登子 - シーズン・オフ
TTITLE7=八神純子 - サマー・イン・サマー～想い出は、素肌に焼いて～
TTITLE8=岡本一生 - ムーンマジック
TTITLE9=山根麻衣 - Out Of The Night
TTITLE10=田島裕子 - くもりガラス
TTITLE11=桑江知子 - MR. COOL
TTITLE12=門あさ美 - プロミス
TTITLE13=Renaja - First Time
TTITLE14=SPARKLING CHERRY - piece
TTITLE15=土屋浩美 - ダーリン
TTITLE16=西寺郷太 - YOU MUST BE LOVE
TTITLE17=Microstar - 夜間飛行
EXTD=
EXTT0=
EXTT1=
EXTT2=
EXTT3=
EXTT4=
EXTT5=
EXTT6=
EXTT7=
EXTT8=
EXTT9=
EXTT10=
EXTT11=
EXTT12=
EXTT13=
EXTT14=
EXTT15=
EXTT16=
EXTT17=
PLAYORDER=
